/* XPM */
static char *stein[] = {
/* columns rows colors chars-per-pixel */
"40 40 165 2 ",
"   c #000000",
".  c #010101",
"X  c #020202",
"o  c #030303",
"O  c #040404",
"+  c #050505",
"@  c #060606",
"#  c #070707",
"$  c #080808",
"%  c #090909",
"&  c #0A0A0A",
"*  c #0B0B0B",
"=  c #0C0C0C",
"-  c #0D0D0D",
";  c #0E0E0E",
":  c #0F0F0F",
">  c #101010",
",  c #111111",
"<  c #121212",
"1  c #131313",
"2  c #141414",
"3  c #151515",
"4  c #161616",
"5  c #171717",
"6  c #181818",
"7  c #191919",
"8  c #1A1A1A",
"9  c #1B1B1B",
"0  c #1C1C1C",
"q  c #1D1D1D",
"w  c #1E1E1E",
"e  c #1F1F1F",
"r  c #202020",
"t  c #212121",
"y  c #222222",
"u  c #232323",
"i  c #242424",
"p  c #252525",
"a  c #262626",
"s  c #272727",
"d  c #282828",
"f  c #292929",
"g  c #2A2A2A",
"h  c #2B2B2B",
"j  c #2C2C2C",
"k  c #2D2D2D",
"l  c #2E2E2E",
"z  c #2F2F2F",
"x  c #303030",
"c  c #313131",
"v  c #323232",
"b  c #333333",
"n  c #343434",
"m  c #353535",
"M  c #363636",
"N  c #373737",
"B  c #383838",
"V  c #393939",
"C  c #3A3A3A",
"Z  c #3B3B3B",
"A  c #3C3C3C",
"S  c #3D3D3D",
"D  c #3E3E3E",
"F  c #3F3F3F",
"G  c #404040",
"H  c #414141",
"J  c #424242",
"K  c #434343",
"L  c #444444",
"P  c #454545",
"I  c #464646",
"U  c #474747",
"Y  c #484848",
"T  c #494949",
"R  c #4A4A4A",
"E  c #4B4B4B",
"W  c #4C4C4C",
"Q  c #4D4D4D",
"!  c #4E4E4E",
"~  c #4F4F4F",
"^  c #505050",
"/  c #515151",
"(  c #525252",
")  c #555555",
"_  c #565656",
"`  c #575757",
"'  c #585858",
"]  c #595959",
"[  c #5A5A5A",
"{  c #5B5B5B",
"}  c #5C5C5C",
"|  c #5D5D5D",
" . c #5F5F5F",
".. c #616161",
"X. c #626262",
"o. c #636363",
"O. c #646464",
"+. c #656565",
"@. c #666666",
"#. c #676767",
"$. c #686868",
"%. c #696969",
"&. c #6B6B6B",
"*. c #6C6C6C",
"=. c #6D6D6D",
"-. c #6E6E6E",
";. c #717171",
":. c #727272",
">. c #747474",
",. c #757575",
"<. c #767676",
"1. c #777777",
"2. c #787878",
"3. c #797979",
"4. c #7A7A7A",
"5. c #7B7B7B",
"6. c #7C7C7C",
"7. c #7D7D7D",
"8. c #7E7E7E",
"9. c #7F7F7F",
"0. c #808080",
"q. c #818181",
"w. c #828282",
"e. c #838383",
"r. c #848484",
"t. c #858585",
"y. c #868686",
"u. c #878787",
"i. c #888888",
"p. c #898989",
"a. c #8A8A8A",
"s. c #8B8B8B",
"d. c #8C8C8C",
"f. c #8D8D8D",
"g. c #8E8E8E",
"h. c #909090",
"j. c #919191",
"k. c #929292",
"l. c #939393",
"z. c #949494",
"x. c #959595",
"c. c #969696",
"v. c #989898",
"b. c #999999",
"n. c #9A9A9A",
"m. c #9B9B9B",
"M. c #9C9C9C",
"N. c #9D9D9D",
"B. c #9E9E9E",
"V. c #9F9F9F",
"C. c #A0A0A0",
"Z. c #A1A1A1",
"A. c #A2A2A2",
"S. c #A3A3A3",
"D. c #A4A4A4",
"F. c #A5A5A5",
"G. c #A6A6A6",
"H. c #A7A7A7",
"J. c #A8A8A8",
"K. c #A9A9A9",
"L. c #AAAAAA",
"P. c #ACACAC",
"I. c #ADADAD",
"U. c #AEAEAE",
"Y. c None",
/* pixels */
"Y.Y.Y.Y.Y.Y.K.Y.Y.Y.Y.Y.Y.Y.Y.Y.Y.Y.Y.Y.Y.Y.Y.Y.Y.Y.Y.Y.Y.Y.Y.Y.Y.c Y.Y.Y.Y.Y.Y.",
"Y.Y.Y.Y.Y.K.K.D.Y.Y.Y.Y.Y.Y.Y.Y.Y.Y.Y.A.m.Y.Y.Y.Y.Y.Y.Y.Y.Y.Y.Y.F j i Y.Y.Y.Y.Y.",
"Y.Y.Y.Y.K.K.D.D.A.Y.Y.Y.Y.Y.Y.Y.Y.Y.d.u.q.2.$.Y.Y.Y.Y.Y.Y.Y.Y.J M j t 2 Y.Y.Y.Y.",
"Y.Y.Y.D.D.D.D.D.A.M.Y.Y.Y.Y.Y.Y.Y.P.P.D.M.m.z.6.Y.Y.Y.Y.Y.Y.{ F M i 6 - & Y.Y.Y.",
"Y.Y.M.A.A.A.M.M.M.P.K.Y.Y.Y.Y.Y.A.j.s.6.,.*.+.+.{ Y.Y.Y.Y.~ o.| h e , @     Y.Y.",
"Y.m.m.m.M.m.M.M.P.M.z.D.Y.Y.u.d.m.M.M.m.j.s.q.2.+.J Y.Y.2.$.F J ( e &         Y.",
"j.j.j.j.z.z.m.K.z.z.P.M.u.,.A.A.z.u.2.*.+.{ ) { +.:.) ~ F | $.M t F ,           ",
"Y.u.s.s.s.j.A.s.z.K.d.q.:.Y.q.6.u.d.j.d.u.6.,.+.~ M Y.~ | c B { h @ M &         ",
"Y.Y.q.q.u.m.u.d.A.q.u.+.  Y.Y.d.s.2.+.{ ( Y J I ~ & Y.Y.c { j 6 Y t & c       Y.",
"Y.Y.Y.6.z.u.u.M.6.u.|     Y.Y.Y.+.q.q.6.,.*.+.I @     Y.Y.6 Y t - I , , h       ",
"Y.Y.Y.Y.d.2.m.q.2.{         Y.Y.Y.+.| ~ J B h @       Y.Y.Y.& F 2 2 F @ &       ",
"Y.Y.Y.Y.Y.d.d.:.|           Y.Y.Y.Y.*.,.*.{ &         Y.Y.Y.Y.@ B @ h -         ",
"Y.Y.Y.Y.Y.J *.|           Y.Y.Y.Y.Y.Y.J c @         Y.Y.Y.Y.Y.Y., c             ",
"Y.Y.Y.Y.Y.Y.{ 2         Y.Y.Y.Y.Y.Y.Y.F M         Y.Y.Y.Y.Y.Y.Y.Y.i           Y.",
"Y.Y.Y.Y.Y.| d.$.,     Y.Y.Y.Y.Y.Y.Y.Y.J M 2     Y.Y.Y.Y.Y.Y.Y.Y.i , t       Y.Y.",
"Y.Y.Y.Y.q.*.s.+.6.Y.Y.Y.Y.Y.Y.Y.Y.Y.*.,.*.+.t Y.Y.Y.Y.Y.Y.Y.Y.  B   M @ Y.Y.Y.Y.",
"Y.Y.Y.q.,.,.2.*.2.{ Y.Y.Y.Y.Y.Y.Y.2.{ M i t c i Y.Y.Y.Y.Y.Y.M - h 2 t 6 2 Y.Y.Y.",
"Y.Y.{ s.o.2.o.,.| *.) Y.Y.Y.Y.Y.2.I I ) ~ I e - Y.Y.Y.Y.Y.t 6 i , i - i & i Y.Y.",
"Y.,.( 6.( 2.~ ,.Y :.I | Y.Y.Y.o.~ J ( t - - M 2 t Y.Y.Y.& M @ M @ c @ j @ c   Y.",
"Y.$.I ,.J *.B $.c o.j o.i Y.h +.i Y 6 j J i @ c @ J Y.M   M   c   j   j   j @ 6 ",
"M | M $.c o.h | t { 6 ( 2 B 2 ) - F   F   B   c   F   c   c   c   j   h   h @ 2 ",
"Y.( h o.t ) 6 ~ , Y & F   Y.@ Y   c & t B t @ j   e Y.Y.  c   j   j   i   h   Y.",
"Y.Y.6 { 6 ~ , I & B @ &   Y.Y.e t , j &   @ h - -     Y.Y.h @ h   i   t   6     ",
"Y.Y.Y.J 6 B 2 c 2 i @       Y.Y.h & , j j h - @       Y.Y.Y., 6 & e & e @       ",
"Y.Y.Y.Y.e e i 6 h           Y.Y.Y.i e       &         Y.Y.Y.Y.& e - 2 -         ",
"Y.Y.Y.Y.Y.@ F   &         Y.Y.Y.Y.Y.2 F B 6           Y.Y.Y.Y.Y.i   2           ",
"Y.Y.Y.Y.Y.Y.h             Y.Y.Y.Y.Y.Y.              Y.Y.Y.Y.Y.Y.Y.@           Y.",
"Y.Y.Y.Y.Y.Y., i       Y.Y.Y.Y.Y.Y.Y.Y.j j &       Y.Y.Y.Y.Y.Y.Y.  e @       Y.Y.",
"Y.Y.Y.Y.Y.I   c , Y.Y.Y.Y.Y.Y.Y.Y.Y.&         Y.Y.Y.Y.Y.Y.Y.Y.- - e   , Y.Y.Y.Y.",
"Y.Y.Y.Y.@ c j @ B @ Y.Y.Y.Y.Y.Y.Y.e j j j h i Y.Y.Y.Y.Y.Y.Y.2 @ t @ 6 6   Y.Y.Y.",
"Y.Y.Y.2 h @ J 2 , M   Y.Y.Y.Y.Y.h 2 @         , Y.Y.Y.Y.Y.2   t - & t   2 @ Y.Y.",
"Y.Y.    h , , F - 2 c @ Y.Y.Y.  & e h h h h i 6 & Y.Y.Y.-   t , @ t - & 2   Y.Y.",
"Y.        j & 6 B & , j , Y.e j t -           - 6 e Y.  - t & @ t - @ 6       Y.",
"          & h   6 c ,   t e &   , e i i i t t 2 -   @ 6 6 @ & t - @ 6 @         ",
"Y.          - i @ - j e   Y.6 i 2 &           & , 2 Y.Y.  6 t & @ 6 &         Y.",
"Y.Y.          & t - @ &   Y.Y.@ - e t t e e e 2 &   Y.Y.Y.6   & 6 @             ",
"Y.Y.Y.            6 &       Y.Y.- @           @       Y.Y.Y.2 2                 ",
"Y.Y.Y.Y.                    Y.Y.Y.6 t t t t ,         Y.Y.Y.@                   ",
"Y.Y.Y.Y.Y.                Y.Y.Y.Y.Y.    @             Y.Y.Y.Y.                  ",
"Y.Y.Y.Y.Y.Y.              Y.Y.Y.Y.Y.Y., ,           Y.Y.Y.Y.Y.Y.              Y."
};
